<?xml version="1.0" encoding="iso-8859-1"?>
<!-- Generator: Adobe Illustrator 19.0.0, SVG Export Plug-In . SVG Version: 6.00 Build 0)  -->
<svg version="1.1" id="Capa_1" xmlns="http://www.w3.org/2000/svg" xmlns:xlink="http://www.w3.org/1999/xlink" x="0px" y="0px"
	 viewBox="0 0 490.667 490.667" style="enable-background:new 0 0 490.667 490.667;" xml:space="preserve">
<g>
	<g>
		<path d="M420.16,256.853h-16.427c-5.773,0-10.453,4.68-10.453,10.453v16.427c0,5.773,4.68,10.453,10.453,10.453h16.427
			c5.773,0,10.453-4.68,10.453-10.453v-16.427C430.613,261.533,425.933,256.853,420.16,256.853z"/>
	</g>
</g>
<g>
	<g>
		<path d="M353.387,256.853H336.96c-5.773,0-10.453,4.68-10.453,10.453v16.427c0,5.773,4.68,10.453,10.453,10.453h16.427
			c5.773,0,10.453-4.68,10.453-10.453v-16.427C363.84,261.533,359.16,256.853,353.387,256.853z"/>
	</g>
</g>
<g>
	<g>
		<path d="M286.827,256.853H270.4c-5.773,0-10.453,4.68-10.453,10.453v16.427c0,5.773,4.68,10.453,10.453,10.453h16.427
			c5.773,0,10.453-4.68,10.453-10.453v-16.427C297.28,261.533,292.6,256.853,286.827,256.853z"/>
	</g>
</g>
<g>
	<g>
		<path d="M220.053,256.853h-16.427c-5.773,0-10.453,4.68-10.453,10.453v16.427c0,5.773,4.68,10.453,10.453,10.453h16.427
			c5.773,0,10.453-4.68,10.453-10.453v-16.427C230.507,261.533,225.827,256.853,220.053,256.853z"/>
	</g>
</g>
<g>
	<g>
		<path d="M153.493,256.853h-16.427c-5.773,0-10.453,4.68-10.453,10.453v16.427c0,5.773,4.68,10.453,10.453,10.453h16.427
			c5.773,0,10.453-4.68,10.453-10.453v-16.427C163.947,261.533,159.267,256.853,153.493,256.853z"/>
	</g>
</g>
<g>
	<g>
		<path d="M86.933,256.853H70.507c-5.773,0-10.453,4.68-10.453,10.453v16.427c0,5.773,4.68,10.453,10.453,10.453h16.427
			c5.773,0,10.453-4.68,10.453-10.453v-16.427C97.387,261.533,92.707,256.853,86.933,256.853z"/>
	</g>
</g>
<g>
	<g>
		<path d="M353.387,322.347H336.96c-5.773,0-10.453,4.68-10.453,10.453v16.427c0,5.773,4.68,10.453,10.453,10.453h16.427
			c5.773,0,10.453-4.68,10.453-10.453V332.8C363.84,327.027,359.16,322.347,353.387,322.347z"/>
	</g>
</g>
<g>
	<g>
		<path d="M286.827,322.347H270.4c-5.773,0-10.453,4.68-10.453,10.453v16.427c0,5.773,4.68,10.453,10.453,10.453h16.427
			c5.773,0,10.453-4.68,10.453-10.453V332.8C297.28,327.027,292.6,322.347,286.827,322.347z"/>
	</g>
</g>
<g>
	<g>
		<path d="M220.053,322.347h-16.427c-5.773,0-10.453,4.68-10.453,10.453v16.427c0,5.773,4.68,10.453,10.453,10.453h16.427
			c5.773,0,10.453-4.68,10.453-10.453V332.8C230.507,327.027,225.827,322.347,220.053,322.347z"/>
	</g>
</g>
<g>
	<g>
		<path d="M153.493,322.347h-16.427c-5.773,0-10.453,4.68-10.453,10.453v16.427c0,5.773,4.68,10.453,10.453,10.453h16.427
			c5.773,0,10.453-4.68,10.453-10.453V332.8C163.947,327.027,159.267,322.347,153.493,322.347z"/>
	</g>
</g>
<g>
	<g>
		<path d="M286.827,387.84H270.4c-5.773,0-10.453,4.68-10.453,10.453v16.427c0,5.773,4.68,10.453,10.453,10.453h16.427
			c5.773,0,10.453-4.68,10.453-10.453v-16.427C297.28,392.52,292.6,387.84,286.827,387.84z"/>
	</g>
</g>
<g>
	<g>
		<path d="M220.053,387.84h-16.427c-5.773,0-10.453,4.68-10.453,10.453v16.427c0,5.773,4.68,10.453,10.453,10.453h16.427
			c5.773,0,10.453-4.68,10.453-10.453v-16.427C230.507,392.52,225.827,387.84,220.053,387.84z"/>
	</g>
</g>
<g>
	<g>
		<path d="M286.827,190.933H270.4c-5.773,0-10.453,4.68-10.453,10.453v16.427c0,5.773,4.68,10.453,10.453,10.453h16.427
			c5.773,0,10.453-4.68,10.453-10.453v-16.427C297.28,195.613,292.6,190.933,286.827,190.933z"/>
	</g>
</g>
<g>
	<g>
		<path d="M220.053,190.933h-16.427c-5.773,0-10.453,4.68-10.453,10.453v16.427c0,5.773,4.68,10.453,10.453,10.453h16.427
			c5.773,0,10.453-4.68,10.453-10.453v-16.427C230.507,195.613,225.827,190.933,220.053,190.933z"/>
	</g>
</g>
<g>
	<g>
		<path d="M286.827,127.147H270.4c-5.773,0-10.453,4.68-10.453,10.453v16.427c0,5.773,4.68,10.453,10.453,10.453h16.427
			c5.773,0,10.453-4.68,10.453-10.453V137.6C297.28,131.827,292.6,127.147,286.827,127.147z"/>
	</g>
</g>
<g>
	<g>
		<path d="M220.053,127.147h-16.427c-5.773,0-10.453,4.68-10.453,10.453v16.427c0,5.773,4.68,10.453,10.453,10.453h16.427
			c5.773,0,10.453-4.68,10.453-10.453V137.6C230.507,131.827,225.827,127.147,220.053,127.147z"/>
	</g>
</g>
<g>
	<g>
		<path d="M286.827,63.573H270.4c-5.773,0-10.453,4.68-10.453,10.453v16.427c0,5.773,4.68,10.453,10.453,10.453h16.427
			c5.773,0,10.453-4.68,10.453-10.453V74.027C297.28,68.253,292.6,63.573,286.827,63.573z"/>
	</g>
</g>
<g>
	<g>
		<path d="M220.053,63.573h-16.427c-5.773,0-10.453,4.68-10.453,10.453v16.427c0,5.773,4.68,10.453,10.453,10.453h16.427
			c5.773,0,10.453-4.68,10.453-10.453V74.027C230.507,68.253,225.827,63.573,220.053,63.573z"/>
	</g>
</g>
<g>
	<g>
		<path d="M286.827,0H270.4c-5.773,0-10.453,4.68-10.453,10.453V26.88c0,5.773,4.68,10.453,10.453,10.453h16.427
			c5.773,0,10.453-4.68,10.453-10.453V10.453C297.28,4.68,292.6,0,286.827,0z"/>
	</g>
</g>
<g>
	<g>
		<path d="M220.053,0h-16.427c-5.773,0-10.453,4.68-10.453,10.453V26.88c0,5.773,4.68,10.453,10.453,10.453h16.427
			c5.773,0,10.453-4.68,10.453-10.453V10.453C230.507,4.68,225.827,0,220.053,0z"/>
	</g>
</g>
<g>
	<g>
		<path d="M253.547,453.333H237.12c-5.773,0-10.453,4.68-10.453,10.453v16.427c0,5.773,4.68,10.453,10.453,10.453h16.427
			c5.773,0,10.453-4.68,10.453-10.453v-16.427C264,458.013,259.32,453.333,253.547,453.333z"/>
	</g>
</g>
<g>
</g>
<g>
</g>
<g>
</g>
<g>
</g>
<g>
</g>
<g>
</g>
<g>
</g>
<g>
</g>
<g>
</g>
<g>
</g>
<g>
</g>
<g>
</g>
<g>
</g>
<g>
</g>
<g>
</g>
</svg>
