<svg id="Capa_1" enable-background="new 0 0 512 512" height="512" viewBox="0 0 512 512" width="512" xmlns="http://www.w3.org/2000/svg"><g id="XMLID_80_"><path id="XMLID_292_" d="m4.399 176.539c-2.759 2.76-4.399 6.544-4.399 10.601v44.96c0 97.383 79.227 176.61 176.61 176.61h44.96c4.057 0 7.841-1.64 10.601-4.399l-93.838-136.644z" fill="#aed44d"/><path id="XMLID_602_" d="m236.57 348.76v44.95c0 4.06-1.63 7.84-4.4 10.6l-227.77-227.77c2.76-2.77 6.54-4.4 10.6-4.4h44.96c97.38 0 176.61 79.23 176.61 176.62z" fill="#80bf3b"/><path id="XMLID_550_" d="m512 175.64v-57.35c0-4.058-1.641-7.843-4.401-10.603l-167.266 130.646-129.361 165.981c2.76 2.757 6.543 4.396 10.598 4.396h57.36c62.257 0 120.786-24.243 164.807-68.263 44.02-44.021 68.263-102.55 68.263-164.807z" fill="#457967"/><path id="XMLID_665_" d="m507.21 107.31-296.62 296.62c-2.54-2.72-4.02-6.35-4.02-10.22v-57.35c0-62.26 24.24-120.79 68.27-164.81 44.02-44.02 102.55-68.26 164.8-68.26h57.36c3.87 0 7.49 1.48 10.21 4.02z" fill="#56985e"/></g></svg>